<?xml version="1.0" encoding="UTF-8" standalone="no"?>
<!-- Created with Inkscape (http://www.inkscape.org/) -->

<svg
   width="210mm"
   height="297mm"
   viewBox="0 0 210 297"
   version="1.1"
   id="svg5"
   inkscape:export-filename="Queen.svg"
   inkscape:export-xdpi="96"
   inkscape:export-ydpi="96"
   inkscape:version="1.2.2 (732a01da63, 2022-12-09)"
   sodipodi:docname="Queen.svg"
   xmlns:inkscape="http://www.inkscape.org/namespaces/inkscape"
   xmlns:sodipodi="http://sodipodi.sourceforge.net/DTD/sodipodi-0.dtd"
   xmlns="http://www.w3.org/2000/svg"
   xmlns:svg="http://www.w3.org/2000/svg">
  <sodipodi:namedview
     id="namedview7"
     pagecolor="#ffffff"
     bordercolor="#000000"
     borderopacity="0.25"
     inkscape:showpageshadow="2"
     inkscape:pageopacity="0.0"
     inkscape:pagecheckerboard="0"
     inkscape:deskcolor="#d1d1d1"
     inkscape:document-units="mm"
     showgrid="false"
     inkscape:zoom="0.52724989"
     inkscape:cx="587.00819"
     inkscape:cy="576.5767"
     inkscape:window-width="1920"
     inkscape:window-height="1017"
     inkscape:window-x="-8"
     inkscape:window-y="-8"
     inkscape:window-maximized="1"
     inkscape:current-layer="layer1" />
  <defs
     id="defs2" />
  <g
     inkscape:label="Layer 1"
     inkscape:groupmode="layer"
     id="layer1">
    <path
       id="path160"
       style="fill:#ffffff;fill-opacity:1;stroke:#000000;stroke-width:6.121;stroke-dasharray:none;stroke-opacity:1"
       d="M 87.433709,86.934461 A 11.362244,11.362244 0 0 0 76.07171,98.296451 11.362244,11.362244 0 0 0 85.641974,109.5135 c 6.072257,15.3442 9.907576,33.20578 12.693058,52.24758 C 90.539693,155.04715 81.26211,148.9919 69.32573,144.11842 a 11.362244,11.362244 0 0 0 -11.300442,-10.18318 11.362244,11.362244 0 0 0 -11.36266,11.36201 11.362244,11.362244 0 0 0 11.36266,11.36199 11.362244,11.362244 0 0 0 5.812715,-1.60442 c 7.528202,2.70426 15.31386,5.99772 26.163175,16.29308 -13.647577,-1.79491 -13.741779,9.68671 -12.804917,22.1786 h 30.969809 0.0443 30.96982 c 0.93687,-12.49189 0.84266,-23.97351 -12.80492,-22.1786 10.84932,-10.29536 18.63498,-13.58882 26.16318,-16.29308 a 11.362244,11.362244 0 0 0 5.81272,1.60442 11.362244,11.362244 0 0 0 11.36266,-11.36199 11.362244,11.362244 0 0 0 -11.36266,-11.36201 11.362244,11.362244 0 0 0 -11.30044,10.18318 c -11.93638,4.87348 -21.21396,10.92873 -29.00931,17.64266 2.78548,-19.0418 6.62081,-36.90338 12.69306,-52.24758 a 11.362244,11.362244 0 0 0 9.57027,-11.217049 11.362244,11.362244 0 0 0 -11.362,-11.36199 11.362244,11.362244 0 0 0 -11.36201,11.36199 11.362244,11.362244 0 0 0 1.71298,5.984149 c -5.93414,14.87731 -9.68179,29.53577 -11.10586,43.96205 -1.42407,-14.42626 -5.17105,-29.08477 -11.105165,-43.96205 a 11.362244,11.362244 0 0 0 1.71297,-5.984149 11.362244,11.362244 0 0 0 -11.361998,-11.36199 z" />
  </g>
</svg>
